<?xml version="1.0" encoding="utf-8"?>
<!-- Generator: Adobe Illustrator 25.1.0, SVG Export Plug-In . SVG Version: 6.00 Build 0)  -->
<svg version="1.1" id="Layer_1" xmlns="http://www.w3.org/2000/svg" xmlns:xlink="http://www.w3.org/1999/xlink" x="0px" y="0px"
	 viewBox="0 0 300 250" style="enable-background:new 0 0 300 250;" xml:space="preserve">
<style type="text/css">
	.st0{fill:#CCCCCC;}
	.st1{fill:#FFFFFF;}
</style>
<g>
	<g>
		<path class="st0" d="M18.63,0h263.61c9.41,1.44,16.62,10.11,17.76,19.34v210.85c-1.06,9.56-8.65,19.05-18.66,19.81H18.61
			C8.44,249.42,0.76,239.78,0,230.05V19.72C0.35,13.89,2.28,7.74,6.98,3.96C10.22,1.23,14.46,0.13,18.63,0z M27.92,31.22
			c-0.06,62.52-0.07,125.04,0.01,187.57c81.38,0.03,162.76,0.03,244.14-0.01c0.08-62.52,0.07-125.04,0.01-187.56
			C190.69,31.18,109.31,31.18,27.92,31.22z"/>
	</g>
	<path class="st0" d="M80.51,52.59c13.84-2.27,26.84,8.58,30.43,21.49c4.56,14.05-2.03,31.09-15.57,37.48
		c-8.79,4.41-20.01,3.01-27.49-3.36c-10.93-8.86-14.1-25.19-8.58-37.91C62.96,61.49,70.89,54.06,80.51,52.59z"/>
	<path class="st0" d="M206.36,62.67c12.39,20.4,24.17,41.17,36.38,61.69c6.21,10.98,12.98,21.68,19.03,32.76
		c0.4,17.06,0.07,34.16,0.16,51.24c-74.77,0.05-149.54,0.07-224.31-0.01c12.41-20.79,24.94-41.51,37.48-62.22
		c6.6,6.59,12.68,13.69,19.5,20.06c18.66-24.12,37.37-48.2,56.11-72.25c6.25,6.97,12.24,14.16,18.49,21.13
		C181.65,97.65,193.91,80.09,206.36,62.67z"/>
</g>
<g>
	<g>
		<path class="st1" d="M27.92,31.22c81.39-0.04,162.77-0.04,244.16,0c0.06,62.52,0.07,125.04-0.01,187.56
			c-81.38,0.04-162.76,0.04-244.14,0.01C27.85,156.26,27.86,93.74,27.92,31.22z M80.51,52.59c-9.62,1.47-17.55,8.9-21.21,17.7
			c-5.52,12.72-2.35,29.05,8.58,37.91c7.48,6.37,18.7,7.77,27.49,3.36c13.54-6.39,20.13-23.43,15.57-37.48
			C107.35,61.17,94.35,50.32,80.51,52.59z M206.36,62.67c-12.45,17.42-24.71,34.98-37.16,52.4c-6.25-6.97-12.24-14.16-18.49-21.13
			c-18.74,24.05-37.45,48.13-56.11,72.25c-6.82-6.37-12.9-13.47-19.5-20.06c-12.54,20.71-25.07,41.43-37.48,62.22
			c74.77,0.08,149.54,0.06,224.31,0.01c-0.09-17.08,0.24-34.18-0.16-51.24c-6.05-11.08-12.82-21.78-19.03-32.76
			C230.53,103.84,218.75,83.07,206.36,62.67z"/>
	</g>
</g>
</svg>
