<svg width="519" height="123" viewBox="0 0 519 123" fill="none" xmlns="http://www.w3.org/2000/svg">
<path d="M12.7309 117.727H5.15529V101.105H12.5564C15.4471 101.105 17.2164 102.85 17.2164 105.342C17.2164 107.435 15.8209 108.83 14.3008 109.154C16.0701 109.428 17.5403 111.247 17.5403 113.241C17.5403 115.907 15.771 117.727 12.7309 117.727ZM12.2075 108.307C14.0765 108.307 15.0733 107.161 15.0733 105.641C15.0733 104.145 14.0765 102.949 12.2075 102.949H7.22362V108.307H12.2075ZM12.3321 115.883C14.251 115.883 15.3973 114.786 15.3973 113.017C15.3973 111.497 14.3506 110.151 12.3321 110.151H7.22362V115.883H12.3321ZM26.9757 117.727H24.9074V110.699L18.3535 101.105H20.7707L25.9291 108.83L31.0875 101.105H33.5047L26.9757 110.699V117.727ZM49.9956 118.026C45.211 118.026 41.4482 114.537 41.4482 109.428C41.4482 104.32 45.211 100.831 49.9956 100.831C52.9361 100.831 54.9795 102.227 56.3003 104.12L54.5808 105.092C53.6339 103.672 51.8895 102.675 49.9956 102.675C46.3573 102.675 43.5913 105.441 43.5913 109.428C43.5913 113.366 46.3573 116.182 49.9956 116.182C51.8895 116.182 53.6339 115.16 54.5808 113.764L56.3252 114.711C54.9297 116.63 52.9361 118.026 49.9956 118.026ZM66.5368 118.026C61.6276 118.026 58.2884 114.337 58.2884 109.428C58.2884 104.519 61.6276 100.831 66.5368 100.831C71.446 100.831 74.8101 104.519 74.8101 109.428C74.8101 114.337 71.446 118.026 66.5368 118.026ZM66.5368 116.182C70.2498 116.182 72.667 113.291 72.667 109.428C72.667 105.541 70.2498 102.675 66.5368 102.675C62.7988 102.675 60.4315 105.541 60.4315 109.428C60.4315 113.291 62.7988 116.182 66.5368 116.182ZM85.8906 118.051C81.1558 118.051 77.3431 114.587 77.3431 109.428C77.3431 104.245 81.1558 100.831 85.8906 100.831C88.856 100.831 90.8994 102.127 92.3448 103.921L90.7001 104.968C89.6534 103.622 87.8841 102.675 85.8906 102.675C82.2523 102.675 79.4862 105.441 79.4862 109.428C79.4862 113.366 82.2523 116.182 85.8906 116.182C87.8841 116.182 89.5288 115.235 90.3761 114.387V111.023H84.6446V109.179H92.4195V115.16C90.8745 116.904 88.6068 118.051 85.8906 118.051ZM109.537 117.727H107.543L97.8493 104.469V117.727H95.7809V101.105H97.8991L107.468 114.088V101.105H109.537V117.727ZM115.493 117.727H113.424V101.105H115.493V117.727ZM125.566 117.727H123.498V102.949H118.24V101.105H130.849V102.949H125.566V117.727ZM135.667 117.727H133.598V101.105H135.667V117.727ZM147.111 117.727H144.545L137.841 101.105H140.209L145.815 115.459L151.422 101.105H153.79L147.111 117.727ZM166.853 117.727H155.963V101.105H166.853V102.949H158.031V108.307H166.678V110.151H158.031V115.883H166.853V117.727ZM190.455 117.727H188.386V110.101H178.668V117.727H176.599V101.105H178.668V108.257H188.386V101.105H190.455V117.727ZM205.23 117.727H194.34V101.105H205.23V102.949H196.408V108.307H205.055V110.151H196.408V115.883H205.23V117.727ZM222.757 117.727H220.389L218.919 114.014H210.646L209.176 117.727H206.808L213.512 101.105H216.078L222.757 117.727ZM218.321 112.194L214.782 103.223L211.269 112.194H218.321ZM234.449 117.727H224.656V101.105H226.724V115.883H234.449V117.727ZM240.917 117.727H238.849V102.949H233.591V101.105H246.2V102.949H240.917V117.727ZM262.804 117.727H260.736V110.101H251.017V117.727H248.949V101.105H251.017V108.257H260.736V101.105H262.804V117.727ZM274.564 118.026C269.78 118.026 266.017 114.537 266.017 109.428C266.017 104.32 269.78 100.831 274.564 100.831C277.505 100.831 279.548 102.227 280.869 104.12L279.149 105.092C278.202 103.672 276.458 102.675 274.564 102.675C270.926 102.675 268.16 105.441 268.16 109.428C268.16 113.366 270.926 116.182 274.564 116.182C276.458 116.182 278.202 115.16 279.149 113.764L280.894 114.711C279.498 116.63 277.505 118.026 274.564 118.026ZM297.686 117.727H295.319L293.848 114.014H285.575L284.105 117.727H281.737L288.441 101.105H291.007L297.686 117.727ZM293.25 112.194L289.712 103.223L286.198 112.194H293.25ZM311.92 117.727H309.478L305.267 111.123H301.927V117.727H299.859V101.105H306.537C309.578 101.105 311.771 103.049 311.771 106.114C311.771 109.104 309.702 110.749 307.435 110.948L311.92 117.727ZM306.288 109.304C308.257 109.304 309.627 107.983 309.627 106.114C309.627 104.22 308.257 102.949 306.288 102.949H301.927V109.304H306.288ZM325.934 117.727H315.044V101.105H325.934V102.949H317.113V108.307H325.76V110.151H317.113V115.883H325.934V117.727ZM337.749 117.727H335.681V101.105H337.749V117.727ZM355.399 117.727H353.405L343.711 104.469V117.727H341.643V101.105H343.761L353.33 114.088V101.105H355.399V117.727ZM365.467 117.727H363.398V102.949H358.14V101.105H370.749V102.949H365.467V117.727ZM384.388 117.727H373.498V101.105H384.388V102.949H375.567V108.307H384.214V110.151H375.567V115.883H384.388V117.727ZM399.747 117.727H397.305L393.094 111.123H389.754V117.727H387.686V101.105H394.364C397.405 101.105 399.598 103.049 399.598 106.114C399.598 109.104 397.529 110.749 395.262 110.948L399.747 117.727ZM394.115 109.304C396.084 109.304 397.455 107.983 397.455 106.114C397.455 104.22 396.084 102.949 394.115 102.949H389.754V109.304H394.115ZM416.627 117.727H414.633L404.94 104.469V117.727H402.871V101.105H404.99L414.559 114.088V101.105H416.627V117.727ZM434.744 117.727H432.376L430.906 114.014H422.633L421.163 117.727H418.795L425.499 101.105H428.065L434.744 117.727ZM430.308 112.194L426.77 103.223L423.256 112.194H430.308ZM441.418 117.727H439.349V102.949H434.091V101.105H446.701V102.949H441.418V117.727ZM451.518 117.727H449.45V101.105H451.518V117.727ZM462.987 118.026C458.078 118.026 454.739 114.337 454.739 109.428C454.739 104.519 458.078 100.831 462.987 100.831C467.897 100.831 471.261 104.519 471.261 109.428C471.261 114.337 467.897 118.026 462.987 118.026ZM462.987 116.182C466.7 116.182 469.118 113.291 469.118 109.428C469.118 105.541 466.7 102.675 462.987 102.675C459.25 102.675 456.882 105.541 456.882 109.428C456.882 113.291 459.25 116.182 462.987 116.182ZM488.222 117.727H486.229L476.535 104.469V117.727H474.467V101.105H476.585L486.154 114.088V101.105H488.222V117.727ZM506.339 117.727H503.972L502.501 114.014H494.228L492.758 117.727H490.391L497.094 101.105H499.661L506.339 117.727ZM501.903 112.194L498.365 103.223L494.851 112.194H501.903ZM518.031 117.727H508.238V101.105H510.306V115.883H518.031V117.727Z" fill="white"/>
<path d="M14.3583 64H4.55599V17.9569H26.0934C36.1028 17.9569 41.5561 24.7219 41.5561 32.7984C41.5561 40.8059 36.0337 47.6399 26.0934 47.6399H14.3583V64ZM24.7818 39.0111C28.6475 39.0111 31.5468 36.595 31.5468 32.7984C31.5468 28.9327 28.6475 26.5857 24.7818 26.5857H14.3583V39.0111H24.7818ZM53.0858 64H44.319V30.6584H53.0858V35.2144C55.4328 32.2461 59.5746 29.8301 63.7164 29.8301V38.3898C63.0952 38.2518 62.2668 38.1827 61.3004 38.1827C58.4011 38.1827 54.5354 39.8395 53.0858 41.9794V64ZM81.5505 64.8284C70.5747 64.8284 63.9478 56.8209 63.9478 47.2947C63.9478 37.8376 70.5747 29.8301 81.5505 29.8301C92.5953 29.8301 99.2222 37.8376 99.2222 47.2947C99.2222 56.8209 92.5953 64.8284 81.5505 64.8284ZM81.5505 57.028C87.0039 57.028 90.1102 52.541 90.1102 47.2947C90.1102 42.1174 87.0039 37.6305 81.5505 37.6305C76.0971 37.6305 73.0598 42.1174 73.0598 47.2947C73.0598 52.541 76.0971 57.028 81.5505 57.028ZM131.405 64H122.639V60.5485C120.361 63.2407 116.426 64.8284 112.077 64.8284C106.762 64.8284 100.48 61.2388 100.48 53.7835C100.48 45.9831 106.762 43.0148 112.077 43.0148C116.495 43.0148 120.43 44.4645 122.639 47.0876V42.6007C122.639 39.2182 119.739 37.0092 115.321 37.0092C111.732 37.0092 108.418 38.3208 105.588 40.9439L102.275 35.0764C106.347 31.4868 111.594 29.8301 116.84 29.8301C124.433 29.8301 131.405 32.8674 131.405 42.4626V64ZM115.597 58.8918C118.428 58.8918 121.189 57.9253 122.639 55.9925V51.8507C121.189 49.9179 118.428 48.9514 115.597 48.9514C112.146 48.9514 109.316 50.7462 109.316 53.9906C109.316 57.097 112.146 58.8918 115.597 58.8918ZM152.526 64.8284C142.241 64.8284 134.855 57.5802 134.855 47.2947C134.855 37.0782 142.241 29.8301 152.526 29.8301C159.36 29.8301 163.502 32.7984 165.711 35.8357L159.982 41.2201C158.394 38.873 155.978 37.6305 152.941 37.6305C147.625 37.6305 143.898 41.4962 143.898 47.2947C143.898 53.0932 147.625 57.028 152.941 57.028C155.978 57.028 158.394 55.6474 159.982 53.4384L165.711 58.7537C163.502 61.8601 159.36 64.8284 152.526 64.8284ZM179.519 64.8284C173.375 64.8284 170.062 61.653 170.062 55.7164V38.3208H164.539V30.6584H170.062V21.5465H178.898V30.6584H185.662V38.3208H178.898V53.3694C178.898 55.4403 180.002 57.028 181.935 57.028C183.246 57.028 184.489 56.5447 184.972 56.0615L186.836 62.6884C185.524 63.8619 183.177 64.8284 179.519 64.8284ZM192.903 27.0689C190.073 27.0689 187.657 24.7219 187.657 21.8226C187.657 18.9233 190.073 16.6453 192.903 16.6453C195.802 16.6453 198.149 18.9233 198.149 21.8226C198.149 24.7219 195.802 27.0689 192.903 27.0689ZM197.321 64H188.554V30.6584H197.321V64ZM220.994 64H211.536L198.145 30.6584H207.533L216.23 53.8526L224.928 30.6584H234.385L220.994 64ZM250.863 64.8284C240.715 64.8284 233.053 57.9944 233.053 47.2947C233.053 37.6305 240.163 29.8301 250.31 29.8301C260.251 29.8301 267.016 37.2853 267.016 48.1921V50.1249H242.234C242.786 54.3358 246.168 57.8563 251.829 57.8563C254.659 57.8563 258.594 56.6138 260.734 54.5429L264.599 60.2033C261.286 63.2407 256.04 64.8284 250.863 64.8284ZM258.525 44.1884C258.318 41.013 256.109 36.8021 250.31 36.8021C244.857 36.8021 242.51 40.8749 242.096 44.1884H258.525ZM313.314 64H302.89L294.814 32.3842L286.806 64H276.383L263.198 17.9569H274.174L282.25 51.2294L291.017 17.9569H298.679L307.377 51.2294L315.385 17.9569H326.429L313.314 64ZM340.645 64.8284C330.497 64.8284 322.835 57.9944 322.835 47.2947C322.835 37.6305 329.945 29.8301 340.093 29.8301C350.033 29.8301 356.798 37.2853 356.798 48.1921V50.1249H332.016C332.568 54.3358 335.951 57.8563 341.611 57.8563C344.441 57.8563 348.376 56.6138 350.516 54.5429L354.382 60.2033C351.068 63.2407 345.822 64.8284 340.645 64.8284ZM348.307 44.1884C348.1 41.013 345.891 36.8021 340.093 36.8021C334.639 36.8021 332.292 40.8749 331.878 44.1884H348.307ZM368.791 64H360.024V17.9569H368.791V64ZM383.144 64H374.377V17.9569H383.144V64ZM420.001 64H411.235V43.8432C411.235 39.2182 408.819 37.6305 405.091 37.6305C401.639 37.6305 398.947 39.5633 397.498 41.5652V64H388.731V30.6584H397.498V35.0073C399.638 32.4532 403.71 29.8301 409.164 29.8301C416.481 29.8301 420.001 33.9719 420.001 40.4607V64ZM441.27 64.8284C431.122 64.8284 423.46 57.9944 423.46 47.2947C423.46 37.6305 430.57 29.8301 440.718 29.8301C450.658 29.8301 457.423 37.2853 457.423 48.1921V50.1249H432.641C433.193 54.3358 436.576 57.8563 442.236 57.8563C445.066 57.8563 449.001 56.6138 451.141 54.5429L455.007 60.2033C451.693 63.2407 446.447 64.8284 441.27 64.8284ZM448.932 44.1884C448.725 41.013 446.516 36.8021 440.718 36.8021C435.264 36.8021 432.917 40.8749 432.503 44.1884H448.932ZM472.66 64.8284C466.862 64.8284 461.27 62.8955 457.75 59.6511L461.546 53.5074C463.962 55.7854 468.932 58.0634 473.074 58.0634C476.871 58.0634 478.666 56.5447 478.666 54.4738C478.666 48.9514 458.854 53.4384 458.854 40.3227C458.854 34.7312 463.755 29.8301 472.522 29.8301C478.182 29.8301 482.669 31.7629 485.983 34.3861L482.462 40.3917C480.46 38.2518 476.664 36.526 472.591 36.526C469.416 36.526 467.345 37.9756 467.345 39.8395C467.345 44.8096 487.087 40.6678 487.087 54.1287C487.087 60.2033 481.91 64.8284 472.66 64.8284ZM502.451 64.8284C496.652 64.8284 491.061 62.8955 487.54 59.6511L491.337 53.5074C493.753 55.7854 498.723 58.0634 502.865 58.0634C506.662 58.0634 508.457 56.5447 508.457 54.4738C508.457 48.9514 488.645 53.4384 488.645 40.3227C488.645 34.7312 493.546 29.8301 502.313 29.8301C507.973 29.8301 512.46 31.7629 515.774 34.3861L512.253 40.3917C510.251 38.2518 506.455 36.526 502.382 36.526C499.206 36.526 497.136 37.9756 497.136 39.8395C497.136 44.8096 516.878 40.6678 516.878 54.1287C516.878 60.2033 511.701 64.8284 502.451 64.8284Z" fill="white"/>
<path d="M3.16553 78.9766L252.563 78.9766L270.371 68.3848L274.67 87.1261L286.542 78.9766H317.348H517.723" stroke="white" stroke-width="2.40771" stroke-linecap="round" stroke-linejoin="round"/>
</svg>
